<?xml version="1.0" standalone="no"?>
<!DOCTYPE svg PUBLIC "-//W3C//DTD SVG 20010904//EN"
 "http://www.w3.org/TR/2001/REC-SVG-20010904/DTD/svg10.dtd">
<svg version="1.0" xmlns="http://www.w3.org/2000/svg"
 width="646.000000pt" height="70.000000pt" viewBox="0 0 646.000000 70.000000"
 preserveAspectRatio="xMidYMid meet">
<metadata>
Created by potrace 1.16, written by Peter Selinger 2001-2019
</metadata>
<g transform="translate(0.000000,70.000000) scale(0.100000,-0.100000)"
fill="#000000" stroke="none">
<path d="M5 653 c8 -36 51 -82 92 -99 21 -9 70 -14 138 -14 l105 0 0 -260 0
-260 70 0 70 0 0 260 0 260 110 0 c89 0 118 4 148 19 47 24 79 58 87 94 l7 27
-417 0 -417 0 7 -27z"/>
<path d="M1485 653 c3 -16 18 -41 33 -56 50 -53 72 -57 341 -57 233 1 248 2
291 23 30 15 52 35 67 62 13 22 23 43 23 48 0 4 -171 7 -381 7 l-381 0 7 -27z"/>
<path d="M2930 485 l0 -195 295 0 295 0 0 -65 0 -65 -227 0 c-219 0 -230 -1
-279 -24 -44 -21 -114 -87 -114 -108 0 -5 171 -8 380 -8 l380 0 0 200 0 200
-295 0 -295 0 0 65 0 65 238 0 c216 0 240 2 268 19 34 21 84 80 84 99 0 9 -96
12 -365 12 l-365 0 0 -195z"/>
<path d="M4370 350 l0 -331 314 3 314 3 27 25 c15 14 36 42 46 63 l19 37 -290
0 -290 0 0 265 0 265 -70 0 -70 0 0 -330z"/>
<path d="M5690 673 c0 -5 10 -26 23 -48 15 -27 37 -47 67 -62 43 -21 58 -22
291 -23 269 0 291 4 341 57 15 15 30 40 33 56 l7 27 -381 0 c-210 0 -381 -3
-381 -7z"/>
<path d="M1484 394 c11 -42 37 -72 83 -94 40 -18 62 -20 290 -20 220 0 253 3
289 19 41 19 75 57 88 99 l7 22 -381 0 -382 0 6 -26z"/>
<path d="M5710 220 l0 -201 68 3 67 3 3 128 3 127 224 0 225 0 0 -130 0 -130
70 0 70 0 0 200 0 200 -365 0 -365 0 0 -200z"/>
<path d="M1484 128 c8 -42 51 -86 96 -99 22 -7 134 -9 300 -7 247 3 267 4 292
23 27 20 68 83 68 104 0 8 -108 11 -381 11 l-381 0 6 -32z"/>
</g>
</svg>
